/* XPM */
static char * circle_xpm[] = {
"20 19 2 1",
" 	c #000000000000",
".	c #FFFFFFFFFFFF",
"                    ",
"                    ",
"                    ",
"                    ",
"    ...........     ",
"    ...........     ",
"    ...........     ",
"    ...........     ",
"    ...........     ",
"    ...........     ",
"    ...........     ",
"    ...........     ",
"    ...........     ",
"    ...........     ",
"                    ",
"                    ",
"                    ",
"                    ",
"                    "};
