/* XPM */
static char * rect_xpm[] = {
"19 20 29 1",
" 	c #000000000000",
".	c #0000FFFF0000",
"X	c #B6DA9658B6DA",
"o	c #B6DAD75CB6DA",
"O	c #D75CB2CAD75C",
"+	c #082000000820",
"@	c #000008200000",
"#	c #D75C00000000",
"$	c #00000000CF3C",
"%	c #8E38CF3C8E38",
"&	c #CF3C8A289658",
"*	c #AEBA8A28AEBA",
"=	c #8E38B2CAD75C",
"-	c #1861EFBE1861",
";	c #EFBEB2CAD75C",
":	c #08200000AEBA",
">	c #EFBE1C71EFBE",
",	c #FFFFFFFFFFFF",
"<	c #FFFFFFFF0000",
"1	c #CF3C8A28CF3C",
"2	c #B6DAB2CAD75C",
"3	c #1861EFBEB6DA",
"4	c #8E3808200000",
"5	c #D75CFFFFFFFF",
"6	c #B6DAD75C0000",
"7	c #9658B6DA9658",
"8	c #B6DAD75C1861",
"9	c #0000AEBA8E38",
"0	c #AEBA8A28B6DA",
"                   ",
"                   ",
"                   ",
"       .....       ",
"      .......      ",
"     .........     ",
"    ...........XoOo",
"OoO.............OoO",
"+@+.............o#$",
"%&X.............OoO",
"oOo.............*=o",
"OoO.............OoO",
"-;o.............+@+",
"@:=o...........oOoO",
"oO->-.........+@+@+",
"@+@+@+.......,,< 1%",
"&2oOoO-.....3OoO*4+",
"@+@+@+@+@+@:=oOo5,,",
"oO6 1%72oO8>->->->o",
"O*4+@+@+@+@+@+@+90O"};
