/* XPM */
static char * caution_xpm[] = {
"20 19 2 1",
" 	c None",
".	c #FFFF00",
"                    ",
"                    ",
"      ........      ",
"     ..........     ",
"    ............    ",
"   ..............   ",
"  ................  ",
"  ................  ",
"  ................  ",
"  ................  ",
"  ................  ",
"  ................  ",
"  ................  ",
"   ..............   ",
"    ............    ",
"     ..........     ",
"      ........      ",
"                    ",
"                    "};
