/* XPM */
static char * go_xpm[] = {
"20 19 2 1",
" 	c None",
".	c #00FF00",
"                    ",
"                    ",
"       ......       ",
"     ..........     ",
"    ............    ",
"   ..............   ",
"   ..............   ",
"  ................  ",
"  ................  ",
"  ................  ",
"  ................  ",
"  ................  ",
"   ..............   ",
"   ..............   ",
"    ............    ",
"     ..........     ",
"       ......       ",
"                    ",
"                    "};
