/* XPM */
static char * stop_xpm[] = {
"20 19 12 1",
" 	c None",
".	c #C23B00",
"+	c #E61800",
"@	c #FA0400",
"#	c #FE0000",
"$	c #EB1300",
"%	c #FF0000",
"&	c #F80600",
"*	c #F00E00",
"=	c #CA3300",
"-	c #EE1000",
";	c #FD0100",
"                    ",
"                    ",
"      .+@##@+.      ",
"     $%%%%%%%%$     ",
"    &%%%%%%%%%%&    ",
"   *%%%%%%%%%%%%*   ",
"  =%%%%%%%%%%%%%%=  ",
"  -%%%%%%%%%%%%%%-  ",
"  ;%%%%%%%%%%%%%%;  ",
"  %%%%%%%%%%%%%%%%  ",
"  ;%%%%%%%%%%%%%%;  ",
"  -%%%%%%%%%%%%%%-  ",
"  =%%%%%%%%%%%%%%=  ",
"   *%%%%%%%%%%%%*   ",
"    &%%%%%%%%%%&    ",
"     $%%%%%%%%$     ",
"      .+@##@+.      ",
"                    ",
"                    "};
