/* XPM */
static char * o_xpm[] = {
"128 128 2 1",
" 	c #FFFFFFFF0000",
".	c #0000FFFF0000",
"                                                                                                                                ",
"                                                                                                                                ",
"                                                               .                                                                ",
"                                                    .......................                                                     ",
"                                                ...............................                                                 ",
"                                            .......................................                                             ",
"                                         .............................................                                          ",
"                                       .................................................                                        ",
"                                    .......................................................                                     ",
"                                  ...........................................................                                   ",
"                                 .............................................................                                  ",
"                               .................................................................                                ",
"                             .....................................................................                              ",
"                            .......................................................................                             ",
"                          ...........................................................................                           ",
"                         .............................................................................                          ",
"                        ...............................................................................                         ",
"                      ...................................................................................                       ",
"                     .....................................................................................                      ",
"                    .......................................................................................                     ",
"                   .........................................................................................                    ",
"                  ...........................................................................................                   ",
"                 .............................................................................................                  ",
"                ...............................................................................................                 ",
"               .................................................................................................                ",
"               .................................................................................................                ",
"              ...................................................................................................               ",
"             .....................................................................................................              ",
"            .......................................................................................................             ",
"           .........................................................................................................            ",
"           .........................................................................................................            ",
"          ...........................................................................................................           ",
"          ...........................................................................................................           ",
"         .............................................................................................................          ",
"        ....................................................... .......................................................         ",
"        ................................................               ................................................         ",
"       .............................................                       .............................................        ",
"       ...........................................                           ...........................................        ",
"      ..........................................                               ..........................................       ",
"      ........................................                                   ........................................       ",
"     ........................................                                     ........................................      ",
"     .......................................                                       .......................................      ",
"     .....................................                                           .....................................      ",
"    .....................................                                             .....................................     ",
"    ....................................                                               ....................................     ",
"    ....................................                                               ....................................     ",
"   ....................................                                                 ....................................    ",
"   ...................................                                                   ...................................    ",
"   ..................................                                                     ..................................    ",
"  ...................................                                                     ...................................   ",
"  ..................................                                                       ..................................   ",
"  ..................................                                                       ..................................   ",
"  .................................                                                         .................................   ",
" ..................................                                                         ..................................  ",
" .................................                                                           .................................  ",
" .................................                                                           .................................  ",
" .................................                                                           .................................  ",
" ................................                                                             ................................  ",
" ................................                                                             ................................  ",
" ................................                                                             ................................  ",
" ................................                                                             ................................  ",
" ................................                                                             ................................  ",
" ................................                                                             ................................  ",
" ................................                                                             ................................  ",
"................................                                                              ................................  ",
" ................................                                                             ................................  ",
" ................................                                                             ................................  ",
" ................................                                                             ................................  ",
" ................................                                                             ................................  ",
" ................................                                                             ................................  ",
" ................................                                                             ................................  ",
" ................................                                                             ................................  ",
" .................................                                                           .................................  ",
" .................................                                                           .................................  ",
" .................................                                                           .................................  ",
" ..................................                                                         ..................................  ",
"  .................................                                                         .................................   ",
"  ..................................                                                       ..................................   ",
"  ..................................                                                       ..................................   ",
"  ...................................                                                     ...................................   ",
"   ..................................                                                     ..................................    ",
"   ...................................                                                   ...................................    ",
"   ....................................                                                 ....................................    ",
"    ....................................                                               ....................................     ",
"    ....................................                                               ....................................     ",
"    .....................................                                             .....................................     ",
"     .....................................                                           .....................................      ",
"     .......................................                                       .......................................      ",
"     ........................................                                     ........................................      ",
"      ........................................                                   ........................................       ",
"      ..........................................                               ..........................................       ",
"       ...........................................                           ...........................................        ",
"       .............................................                       .............................................        ",
"        ................................................               ................................................         ",
"        ...............................................................................................................         ",
"         .............................................................................................................          ",
"          ...........................................................................................................           ",
"          ...........................................................................................................           ",
"           .........................................................................................................            ",
"           .........................................................................................................            ",
"            .......................................................................................................             ",
"             .....................................................................................................              ",
"              ...................................................................................................               ",
"               .................................................................................................                ",
"               .................................................................................................                ",
"                ...............................................................................................                 ",
"                 .............................................................................................                  ",
"                  ...........................................................................................                   ",
"                   .........................................................................................                    ",
"                    .......................................................................................                     ",
"                     .....................................................................................                      ",
"                      ...................................................................................                       ",
"                        ...............................................................................                         ",
"                         .............................................................................                          ",
"                          ...........................................................................                           ",
"                            .......................................................................                             ",
"                             .....................................................................                              ",
"                               .................................................................                                ",
"                                 .............................................................                                  ",
"                                  ...........................................................                                   ",
"                                    .......................................................                                     ",
"                                       .................................................                                        ",
"                                         .............................................                                          ",
"                                            .......................................                                             ",
"                                                ...............................                                                 ",
"                                                    .......................                                                     ",
"                                                                                                                                ",
"                                                                                                                                "};
