/* XPM */
static char * x_xpm[] = {
"128 128 2 1",
" 	c #00000000FFFF",
".	c #FFFFFFFF0000",
"                       ................................................................................                         ",
"                        ..............................................................................                          ",
"                         ............................................................................                           ",
"                          ..........................................................................                            ",
"                           ........................................................................                             ",
"                            ......................................................................                              ",
"                             ....................................................................                               ",
"                              ..................................................................                                ",
"                               ................................................................                                 ",
"                                ..............................................................                                  ",
"                                 ............................................................                                   ",
"                                  ..........................................................                                    ",
"                                   ........................................................                                     ",
"                                    ......................................................                                      ",
"                                     ....................................................                                       ",
"                                      ..................................................                                        ",
"                                       ................................................                                         ",
"                                        ..............................................                                          ",
"                                         ............................................                                           ",
"                                          ..........................................                                            ",
"                                           ........................................                                             ",
"                                            ......................................                                             .",
"                                             ....................................                                             ..",
".                                             ..................................                                             ...",
"..                                             ................................                                             ....",
"...                                             ..............................                                             .....",
"....                                             ............................                                             ......",
".....                                             ..........................                                             .......",
"......                                             ........................                                             ........",
".......                                             ......................                                             .........",
"........                                             ....................                                             ..........",
".........                                             ..................                                             ...........",
"..........                                             ................                                             ............",
"...........                                             ..............                                             .............",
"............                                             ............                                             ..............",
".............                                             ..........                                             ...............",
"..............                                             ........                                             ................",
"...............                                             ......                                             .................",
"................                                             ....                                             ..................",
".................                                             ..                                             ...................",
"..................                                                                                          ....................",
"...................                                                                                        .....................",
"....................                                                                                      ......................",
".....................                                                                                    .......................",
"......................                                                                                  ........................",
".......................                                                                                .........................",
"........................                                                                              ..........................",
".........................                                                                            ...........................",
"..........................                                                                          ............................",
"...........................                                                                        .............................",
"............................                                                                      ..............................",
".............................                                                                    ...............................",
"..............................                                                                  ................................",
"...............................                                                                .................................",
"................................                                                              ..................................",
".................................                                                            ...................................",
"..................................                                                          ....................................",
"...................................                                                        .....................................",
"....................................                                                       .....................................",
".....................................                                                     ......................................",
"......................................                                                   .......................................",
".......................................                                                 ........................................",
"........................................                                               .........................................",
"........................................                                              ..........................................",
".......................................                                                .........................................",
"......................................                                                  ........................................",
".....................................                                                    .......................................",
"....................................                                                      ......................................",
"....................................                                                       .....................................",
"...................................                                                         ....................................",
"..................................                                                           ...................................",
".................................                                                             ..................................",
"................................                                                               .................................",
"...............................                                                                 ................................",
"..............................                                                                   ...............................",
".............................                                                                     ..............................",
"............................                                                                       .............................",
"...........................                                                                         ............................",
"..........................                                                                           ...........................",
".........................                                                                             ..........................",
"........................                                                                               .........................",
".......................                                                                                 ........................",
"......................                                                                                   .......................",
".....................                                                                                     ......................",
"....................                                                                                       .....................",
"...................                                                                                         ....................",
"..................                                             .                                             ...................",
".................                                             ...                                             ..................",
"................                                             .....                                             .................",
"...............                                             .......                                             ................",
"..............                                             .........                                             ...............",
".............                                             ...........                                             ..............",
"............                                             .............                                             .............",
"...........                                             ...............                                             ............",
"..........                                             .................                                             ...........",
".........                                             ...................                                             ..........",
"........                                             .....................                                             .........",
".......                                             .......................                                             ........",
"......                                             .........................                                             .......",
".....                                             ...........................                                             ......",
"....                                             .............................                                             .....",
"...                                             ...............................                                             ....",
"..                                             .................................                                             ...",
".                                             ...................................                                             ..",
"                                             .....................................                                             .",
"                                            .......................................                                             ",
"                                           .........................................                                            ",
"                                          ...........................................                                           ",
"                                         .............................................                                          ",
"                                        ...............................................                                         ",
"                                       .................................................                                        ",
"                                      ...................................................                                       ",
"                                     .....................................................                                      ",
"                                    .......................................................                                     ",
"                                   .........................................................                                    ",
"                                  ...........................................................                                   ",
"                                 .............................................................                                  ",
"                                ...............................................................                                 ",
"                               .................................................................                                ",
"                              ...................................................................                               ",
"                             .....................................................................                              ",
"                            .......................................................................                             ",
"                           .........................................................................                            ",
"                          ...........................................................................                           ",
"                         .............................................................................                          ",
"                        ...............................................................................                         ",
"                       .................................................................................                        ",
"                      ...................................................................................                       "};
