/* XPM */
static char * back_xpm[] = {
"19 17 2 1",
" 	c None",
".	c #FF00FF",
"                 ..",
"               ....",
"             ......",
"           ........",
"        ...........",
"      .............",
"    ...............",
"  .................",
"...................",
"  .................",
"    ...............",
"      .............",
"        ...........",
"           ........",
"             ......",
"               ....",
"                 .."};
