/* XPM */
static char * forward_xpm[] = {
"18 17 2 1",
" 	c None",
".	c #FF00FF",
"..                ",
"....              ",
"......            ",
"........          ",
"...........       ",
".............     ",
"...............   ",
"................. ",
"..................",
"................. ",
"...............   ",
".............     ",
"...........       ",
"........          ",
"......            ",
"....              ",
"..                "};
