/* XPM */
static char * pause_xpm[] = {
"20 19 2 1",
" 	c None",
".	c #FF00FF",
"                    ",
"                    ",
"    .....   .....   ",
"    .....   .....   ",
"    .....   .....   ",
"    .....   .....   ",
"    .....   .....   ",
"    .....   .....   ",
"    .....   .....   ",
"    .....   .....   ",
"    .....   .....   ",
"    .....   .....   ",
"    .....   .....   ",
"    .....   .....   ",
"    .....   .....   ",
"    .....   .....   ",
"    .....   .....   ",
"                    ",
"                    "};
