/* XPM */
static char * play2_xpm[] = {
"20 19 2 1",
" 	c None",
".	c #F800F8",
"                    ",
"                    ",
"   ....   .....     ",
"   ....   ......    ",
"   ....   ......    ",
"   ....   .......   ",
"   ....   ........  ",
"   ....   ........  ",
"   ....   ......... ",
"   ....   ......... ",
"   ....   ......... ",
"   ....   ........  ",
"   ....   ........  ",
"   ....   .......   ",
"   ....   .......   ",
"   ....   ......    ",
"   ....   .....     ",
"                    ",
"                    "};
