/* XPM */
static char * test3_xpm[] = {
"20 19 3 1",
" 	c #000000000000",
".	c #FFFFFFFF0000",
"X	c #FFFFFFFFFFFF",
"                    ",
"                    ",
"                    ",
"                    ",
"                    ",
"                    ",
"                    ",
"   .X.              ",
"   X.X.X.X.X        ",
"   .X.X.X.X.        ",
"   X.X.             ",
"   .X. .........    ",
"   X. .........     ",
"   . .........      ",
"    .........       ",
"                    ",
"                    ",
"                    ",
"                    "};
