/* XPM */
static char * test1_xpm[] = {
"20 19 4 1",
" 	c #000000000000",
".	c #FFFFFFFF0000",
"X	c #FFFFFFFFFFFF",
"o	c #0000FFFF0000",
"                    ",
"                    ",
"                    ",
"                    ",
"                    ",
"                    ",
"                    ",
"   .X.              ",
"   X.X.X.X.X        ",
"   .X.X.X.X.        ",
"   X.X.             ",
"   .X. ooooooooo    ",
"   X. ooooooooo     ",
"   . ooooooooo      ",
"    ooooooooo       ",
"                    ",
"                    ",
"                    ",
"                    "};
